{"title":"I.Survived.a.Zombie.Holocaust.2014.BRRip.x264-MenaceIISociety","uid":12269775,"size":1136362953,"categoryP":"video","categoryS":"movies","magnet":"?xt=urn:btih:e5004004845c8ee8b130c8e3015354223db941a6&amp;dn=I.Survived.a.Zombie.Holocaust.2014.BRRip.x264-MenaceIISociety&amp;tr=udp%3A%2F%2Ftracker.openbittorrent.com%3A80&amp;tr=udp%3A%2F%2Fopen.demonii.com%3A1337&amp;tr=udp%3A%2F%2Ftracker.coppersurfer.tk%3A6969&amp;tr=udp%3A%2F%2Fexodus.desync.com%3A6969","seeders":1,"leechers":0,"uploader":"xxxlavalxxx","files":4,"time":1440283092,"description":" &lt;a href=&quot;http://extraimago.com/image/L3v&quot; rel=&quot;nofollow&quot; target=&quot;_NEW&quot;&gt;http://extraimago.com/image/L3v&lt;/a&gt;\n &lt;a href=&quot;\nhttp://www.imdb.com/title/tt2536124/&quot; rel=&quot;nofollow&quot; target=&quot;_NEW&quot;&gt;\nhttp://www.imdb.com/title/tt2536124/&lt;/a&gt;\n\n\nA young runner, on a Zombie film set, has the first day from hell when real Zombies overrun the set.\n\nDirector: Guy Pigden\nWriters: Guy Pigden, Guy Pigden\nStars: Harley Neville, Jocelyn Christian, Ben Baker \nGenres: Comedy | Horror\nCountry: New Zealand\nLanguage: English\n\n\nI.Survived.a.Zombie.Holocaust.2014.BRRip.x264-MenaceIISociety\n &lt;a href=&quot;\nhttp://www.imdb.com/title/tt2536124/&quot; rel=&quot;nofollow&quot; target=&quot;_NEW&quot;&gt;\nhttp://www.imdb.com/title/tt2536124/&lt;/a&gt;\nSource: ENCOUNTERS [THANKS]\n\nGeneral\nComplete name: I.Survived.a.Zombie.Holocaust.2014.BRRip.x264-MenaceIISociety.mp4\nFormat: MPEG-4\nFormat profile: Base Media\nCodec ID: isom\nFile size: 1.04 GiB\nDuration: 1h 43mn\nOverall bit rate mode: Variable\nOverall bit rate: 1 437 Kbps\nEncoded date: UTC 2015-08-22 18:45:37\nTagged date: UTC 2015-08-22 18:45:37\n\nVideo\nID: 1\nFormat: AVC\nFormat/Info: Advanced Video Codec\nFormat profile: &lt;a class=&quot;__cf_email__&quot; href=&quot;/cdn-cgi/l/email-protection&quot; data-cfemail=&quot;5d15343a351d1169736c&quot;&gt;[email&amp;#160;protected]&lt;/a&gt;&lt;script data-cfhash='f9e31' type=&quot;text/javascript&quot;&gt;\n/* &lt;![CDATA[ */!function(){try{var t=&quot;currentScript&quot;in document?document.currentScript:function(){for(var t=document.getElementsByTagName(&quot;script&quot;),e=t.length;e--;)if(t[e].getAttribute(&quot;data-cfhash&quot;))return t[e]}();if(t&amp;&amp;t.previousSibling){var e,r,n,i,c=t.previousSibling,a=c.getAttribute(&quot;data-cfemail&quot;);if(a){for(e=&quot;&quot;,r=parseInt(a.substr(0,2),16),n=2;a.length-n;n+=2)i=parseInt(a.substr(n,2),16)^r,e+=String.fromCharCode(i);e=document.createTextNode(e),c.parentNode.replaceChild(e,c)}t.parentNode.removeChild(t);}}catch(u){}}()/* ]]&gt; */&lt;/script&gt;\nFormat settings, CABAC: Yes\nFormat settings, ReFrames: 3 frames\nCodec ID: avc1\nCodec ID/Info: Advanced Video Coding\nDuration: 1h 43mn\nBit rate mode: Variable\nBit rate: 1 091 Kbps\nMaximum bit rate: 40.0 Mbps\nWidth: 720 pixels\nHeight: 384 pixels\nDisplay aspect ratio: 1.85:1\nFrame rate mode: Constant\nFrame rate: 23.976 fps\nColor space: YUV\nChroma subsampling: 4:2:0\nBit depth: 8 bits\nScan type: Progressive\nBits/(Pixel*Frame): 0.165\nStream size: 808 MiB (76%)\nWriting library: x264 core 148 r2579 73ae2d1\n\nAudio\nID: 2\nFormat: AAC\nFormat/Info: Advanced Audio Codec\nFormat profile: LC\nCodec ID: 40\nDuration: 1h 43mn\nBit rate mode: Variable\nBit rate: 342 Kbps\nMaximum bit rate: 377 Kbps\nChannel(s): 6 channels\nChannel positions: Front: L C R, Side: L R, LFE\nSampling rate: 48.0 KHz\nCompression mode: Lossy\nStream size: 253 MiB (24%)\nLanguage: English\nEncoded date: UTC 2015-08-22 18:31:02\nTagged date: UTC 2015-08-22 18:51:41 \n\n &lt;a href=&quot;\nhttp://extraimago.com/image/L3W&quot; rel=&quot;nofollow&quot; target=&quot;_NEW&quot;&gt;\nhttp://extraimago.com/image/L3W&lt;/a&gt; &lt;a href=&quot;\nhttp://extraimago.com/image/L3f&quot; rel=&quot;nofollow&quot; target=&quot;_NEW&quot;&gt;\nhttp://extraimago.com/image/L3f&lt;/a&gt; &lt;a href=&quot;\nhttp://extraimago.com/image/L98&quot; rel=&quot;nofollow&quot; target=&quot;_NEW&quot;&gt;\nhttp://extraimago.com/image/L98&lt;/a&gt; &lt;a href=&quot;\nhttp://extraimago.com/image/L9a&quot; rel=&quot;nofollow&quot; target=&quot;_NEW&quot;&gt;\nhttp://extraimago.com/image/L9a&lt;/a&gt; &lt;a href=&quot;\nhttp://extraimago.com/image/L9w&quot; rel=&quot;nofollow&quot; target=&quot;_NEW&quot;&gt;\nhttp://extraimago.com/image/L9w&lt;/a&gt;","torrent":{"xt":"urn:btih:e5004004845c8ee8b130c8e3015354223db941a6","amp;dn":"I.Survived.a.Zombie.Holocaust.2014.BRRip.x264-MenaceIISociety","amp;tr":["udp%3A%2F%2Ftracker.openbittorrent.com%3A80","udp%3A%2F%2Fopen.demonii.com%3A1337","udp%3A%2F%2Ftracker.coppersurfer.tk%3A6969","udp%3A%2F%2Fexodus.desync.com%3A6969"],"infoHash":"e5004004845c8ee8b130c8e3015354223db941a6","infoHashBuffer":{"type":"Buffer","data":[229,0,64,4,132,92,142,232,177,48,200,227,1,83,84,34,61,185,65,166]},"announce":[],"urlList":[]}}